<svg xmlns="http://www.w3.org/2000/svg" width="198" height="28" viewBox="0 0 198 28">
    <path fill="#1D1D1B" fill-rule="evenodd" d="M89.925 13.87c0-4.832 4.02-8.733 9-8.733s9 3.901 9 8.733c0 4.832-4.02 8.733-9 8.733s-9-3.901-9-8.733zm-5.294 0c0 7.653 6.408 13.87 14.294 13.87 7.887 0 14.295-6.217 14.295-13.87S106.812 0 98.925 0C91.04 0 84.631 6.217 84.631 13.87zm72.721 12.877h17.063v-4.415H162.47V.993h-5.119v25.754zm-11.47 0H151V.993h-5.12v25.754zm51.51-21.339V.993h-17.44v25.754h17.82v-4.415H185.07v-7.174h10.427v-4.415H185.07V5.408h12.323zM124.52 22.332v-6.99h6.636c1.782 0 2.768.441 3.412 1.14.607.625.948 1.435.948 2.355 0 .92-.34 1.729-.948 2.355-.644.698-1.63 1.14-3.412 1.14h-6.636zm0-16.924h5.12c1.592 0 2.312.368 2.843.92.455.478.758 1.14.758 1.84 0 .699-.303 1.36-.758 1.839-.53.552-1.251.92-2.844.92h-5.119V5.408zM119.401.993v25.754h11.868c3.412 0 5.46-.883 6.938-2.318 1.48-1.398 2.427-3.385 2.427-5.556 0-2.87-1.63-5.444-3.981-6.585.872-.883 1.706-2.612 1.706-4.304 0-2.098-.986-3.937-2.464-5.188-1.29-1.104-2.958-1.803-5.953-1.803H119.4zm-63.89 0h-3.603v25.754h5.119V12.398l6.37 10.118h3.564l6.37-10.118v14.349h5.12V.993h-3.603l-9.63 15.416h-.077L55.511.993zM44.78 5.408V.993H27.337v25.754h17.82v-4.415H32.458v-7.174h10.427v-4.415H32.457V5.408H44.78zM5.118 22.332v-6.99h6.635c1.783 0 2.768.441 3.413 1.14.606.625.948 1.435.948 2.355 0 .92-.342 1.729-.948 2.355-.645.698-1.63 1.14-3.413 1.14H5.12zm0-16.924h5.119c1.592 0 2.313.368 2.843.92.456.478.759 1.14.759 1.84 0 .699-.303 1.36-.759 1.839-.53.552-1.25.92-2.843.92h-5.12V5.408zM0 .993v25.754h11.868c3.413 0 5.46-.883 6.939-2.318 1.479-1.398 2.426-3.385 2.426-5.556 0-2.87-1.63-5.444-3.98-6.585.871-.883 1.706-2.612 1.706-4.304 0-2.098-.986-3.937-2.465-5.188-1.29-1.104-2.957-1.803-5.953-1.803H0z"/>
</svg>
